# Blender v2.79 (sub 0) OBJ File: ''
# www.blender.org
o Cylinder
v 0.000000 -0.010000 -0.100000
v 0.000000 0.010000 -0.100000
v 0.014904 -0.010000 -0.098883
v 0.014904 0.010000 -0.098883
v 0.029476 -0.010000 -0.095557
v 0.029476 0.010000 -0.095557
v 0.043388 -0.010000 -0.090097
v 0.043388 0.010000 -0.090097
v 0.056332 -0.010000 -0.082624
v 0.056332 0.010000 -0.082624
v 0.068017 -0.010000 -0.073305
v 0.068017 0.010000 -0.073305
v 0.078183 -0.010000 -0.062349
v 0.078183 0.010000 -0.062349
v 0.086603 -0.010000 -0.050000
v 0.086603 0.010000 -0.050000
v 0.093087 -0.010000 -0.036534
v 0.093087 0.010000 -0.036534
v 0.097493 -0.010000 -0.022252
v 0.097493 0.010000 -0.022252
v 0.099720 -0.010000 -0.007473
v 0.099720 0.010000 -0.007473
v 0.099720 -0.010000 0.007473
v 0.099720 0.010000 0.007473
v 0.097493 -0.010000 0.022252
v 0.097493 0.010000 0.022252
v 0.093087 -0.010000 0.036534
v 0.093087 0.010000 0.036534
v 0.086603 -0.010000 0.050000
v 0.086603 0.010000 0.050000
v 0.078183 -0.010000 0.062349
v 0.078183 0.010000 0.062349
v 0.068017 -0.010000 0.073305
v 0.068017 0.010000 0.073305
v 0.056332 -0.010000 0.082624
v 0.056332 0.010000 0.082624
v 0.043388 -0.010000 0.090097
v 0.043388 0.010000 0.090097
v 0.029476 -0.010000 0.095557
v 0.029476 0.010000 0.095557
v 0.014904 -0.010000 0.098883
v 0.014904 0.010000 0.098883
v 0.000000 -0.010000 0.100000
v 0.000000 0.010000 0.100000
v -0.014904 -0.010000 0.098883
v -0.014904 0.010000 0.098883
v -0.029475 -0.010000 0.095557
v -0.029475 0.010000 0.095557
v -0.043388 -0.010000 0.090097
v -0.043388 0.010000 0.090097
v -0.056332 -0.010000 0.082624
v -0.056332 0.010000 0.082624
v -0.068017 -0.010000 0.073305
v -0.068017 0.010000 0.073305
v -0.078183 -0.010000 0.062349
v -0.078183 0.010000 0.062349
v -0.086602 -0.010000 0.050000
v -0.086602 0.010000 0.050000
v -0.093087 -0.010000 0.036534
v -0.093087 0.010000 0.036534
v -0.097493 -0.010000 0.022252
v -0.097493 0.010000 0.022252
v -0.099720 -0.010000 0.007473
v -0.099720 0.010000 0.007473
v -0.099720 -0.010000 -0.007473
v -0.099720 0.010000 -0.007473
v -0.097493 -0.010000 -0.022252
v -0.097493 0.010000 -0.022252
v -0.093087 -0.010000 -0.036534
v -0.093087 0.010000 -0.036534
v -0.086603 -0.010000 -0.050000
v -0.086603 0.010000 -0.050000
v -0.078183 -0.010000 -0.062349
v -0.078183 0.010000 -0.062349
v -0.068017 -0.010000 -0.073305
v -0.068017 0.010000 -0.073305
v -0.056332 -0.010000 -0.082624
v -0.056332 0.010000 -0.082624
v -0.043389 -0.010000 -0.090097
v -0.043389 0.010000 -0.090097
v -0.029476 -0.010000 -0.095557
v -0.029476 0.010000 -0.095557
v -0.014904 -0.010000 -0.098883
v -0.014904 0.010000 -0.098883
vt 1.000000 1.000000
vt 0.976190 0.500000
vt 1.000000 0.500000
vt 0.976190 1.000000
vt 0.952381 0.500000
vt 0.952381 1.000000
vt 0.928571 0.500000
vt 0.928571 1.000000
vt 0.904762 0.500000
vt 0.904762 1.000000
vt 0.880952 0.500000
vt 0.880952 1.000000
vt 0.857143 0.500000
vt 0.857143 1.000000
vt 0.833333 0.500000
vt 0.833333 1.000000
vt 0.809524 0.500000
vt 0.809524 1.000000
vt 0.785714 0.500000
vt 0.785714 1.000000
vt 0.761904 0.500000
vt 0.761904 1.000000
vt 0.738095 0.500000
vt 0.738095 1.000000
vt 0.714285 0.500000
vt 0.714285 1.000000
vt 0.690476 0.500000
vt 0.690476 1.000000
vt 0.666666 0.500000
vt 0.666666 1.000000
vt 0.642857 0.500000
vt 0.642857 1.000000
vt 0.619047 0.500000
vt 0.619047 1.000000
vt 0.595238 0.500000
vt 0.595238 1.000000
vt 0.571428 0.500000
vt 0.571428 1.000000
vt 0.547619 0.500000
vt 0.547619 1.000000
vt 0.523809 0.500000
vt 0.523809 1.000000
vt 0.499999 0.500000
vt 0.499999 1.000000
vt 0.476190 0.500000
vt 0.476190 1.000000
vt 0.452380 0.500000
vt 0.452380 1.000000
vt 0.428571 0.500000
vt 0.428571 1.000000
vt 0.404761 0.500000
vt 0.404761 1.000000
vt 0.380952 0.500000
vt 0.380952 1.000000
vt 0.357142 0.500000
vt 0.357142 1.000000
vt 0.333333 0.500000
vt 0.333333 1.000000
vt 0.309523 0.500000
vt 0.309523 1.000000
vt 0.285714 0.500000
vt 0.285714 1.000000
vt 0.261904 0.500000
vt 0.261904 1.000000
vt 0.238095 0.500000
vt 0.238095 1.000000
vt 0.214285 0.500000
vt 0.214285 1.000000
vt 0.190476 0.500000
vt 0.190476 1.000000
vt 0.166666 0.500000
vt 0.166666 1.000000
vt 0.142857 0.500000
vt 0.142857 1.000000
vt 0.119047 0.500000
vt 0.119047 1.000000
vt 0.095238 0.500000
vt 0.095238 1.000000
vt 0.071428 0.500000
vt 0.071428 1.000000
vt 0.047619 0.500000
vt 0.179258 0.479337
vt 0.145868 0.033767
vt 0.473410 0.337682
vt 0.047619 1.000000
vt 0.023809 0.500000
vt 0.023809 1.000000
vt -0.000001 0.500000
vt 0.854132 0.466233
vt 0.820741 0.020663
vt 0.542154 0.370000
vt 0.320741 0.479337
vt 0.285770 0.487319
vt 0.250000 0.490000
vt 0.214229 0.487319
vt 0.145867 0.466232
vt 0.114803 0.448297
vt 0.086758 0.425932
vt 0.062360 0.399637
vt 0.042154 0.370000
vt 0.010671 0.267935
vt 0.026590 0.337681
vt 0.016017 0.303405
vt 0.010671 0.232064
vt 0.042154 0.130000
vt 0.016017 0.196595
vt 0.026590 0.162318
vt 0.062361 0.100362
vt 0.086759 0.074067
vt 0.114803 0.051703
vt 0.179259 0.020662
vt 0.285770 0.012681
vt 0.214230 0.012681
vt 0.250000 0.010000
vt 0.320741 0.020663
vt 0.413241 0.074068
vt 0.354132 0.033768
vt 0.385197 0.051703
vt 0.437640 0.100362
vt 0.457846 0.130000
vt 0.473410 0.162318
vt 0.483983 0.196595
vt 0.489329 0.232065
vt 0.489329 0.267935
vt 0.483983 0.303405
vt 0.457846 0.370000
vt 0.437640 0.399638
vt 0.413241 0.425932
vt 0.385197 0.448297
vt 0.354132 0.466233
vt -0.000001 1.000000
vt 0.714229 0.487319
vt 0.750000 0.490000
vt 0.785770 0.487319
vt 0.820741 0.479337
vt 0.885197 0.448297
vt 0.913242 0.425932
vt 0.937640 0.399638
vt 0.957846 0.370000
vt 0.973410 0.337682
vt 0.983983 0.303405
vt 0.989329 0.267935
vt 0.989329 0.232065
vt 0.983983 0.196595
vt 0.973410 0.162318
vt 0.957846 0.130000
vt 0.937640 0.100362
vt 0.913242 0.074068
vt 0.885197 0.051703
vt 0.854132 0.033768
vt 0.785770 0.012681
vt 0.750000 0.010000
vt 0.714230 0.012681
vt 0.679259 0.020662
vt 0.645868 0.033767
vt 0.614803 0.051703
vt 0.586759 0.074067
vt 0.562361 0.100362
vt 0.542154 0.130000
vt 0.510671 0.232064
vt 0.526590 0.162318
vt 0.516017 0.196595
vt 0.510671 0.267935
vt 0.516017 0.303405
vt 0.526590 0.337681
vt 0.562360 0.399637
vt 0.586758 0.425932
vt 0.614803 0.448297
vt 0.645867 0.466232
vt 0.679258 0.479337
vn 0.0747 0.0000 -0.9972
vn 0.2225 0.0000 -0.9749
vn 0.3653 0.0000 -0.9309
vn 0.5000 0.0000 -0.8660
vn 0.6235 0.0000 -0.7818
vn 0.7331 0.0000 -0.6802
vn 0.8262 0.0000 -0.5633
vn 0.9010 0.0000 -0.4339
vn 0.9556 0.0000 -0.2948
vn 0.9888 0.0000 -0.1490
vn 1.0000 0.0000 0.0000
vn 0.9888 0.0000 0.1490
vn 0.9556 0.0000 0.2948
vn 0.9010 0.0000 0.4339
vn 0.8262 0.0000 0.5633
vn 0.7331 0.0000 0.6802
vn 0.6235 0.0000 0.7818
vn 0.5000 0.0000 0.8660
vn 0.3653 0.0000 0.9309
vn 0.2225 0.0000 0.9749
vn 0.0747 0.0000 0.9972
vn -0.0747 0.0000 0.9972
vn -0.2225 0.0000 0.9749
vn -0.3653 0.0000 0.9309
vn -0.5000 0.0000 0.8660
vn -0.6235 0.0000 0.7818
vn -0.7331 0.0000 0.6802
vn -0.8262 0.0000 0.5633
vn -0.9010 0.0000 0.4339
vn -0.9556 0.0000 0.2948
vn -0.9888 0.0000 0.1490
vn -1.0000 0.0000 0.0000
vn -0.9888 0.0000 -0.1490
vn -0.9556 0.0000 -0.2948
vn -0.9010 0.0000 -0.4339
vn -0.8262 0.0000 -0.5633
vn -0.7331 0.0000 -0.6802
vn -0.6235 0.0000 -0.7818
vn -0.5000 0.0000 -0.8660
vn -0.3653 0.0000 -0.9309
vn 0.0000 1.0000 0.0000
vn -0.2225 0.0000 -0.9749
vn -0.0747 0.0000 -0.9972
vn 0.0000 -1.0000 0.0000
s off
f 2/1/1 3/2/1 1/3/1
f 4/4/2 5/5/2 3/2/2
f 6/6/3 7/7/3 5/5/3
f 8/8/4 9/9/4 7/7/4
f 10/10/5 11/11/5 9/9/5
f 12/12/6 13/13/6 11/11/6
f 14/14/7 15/15/7 13/13/7
f 16/16/8 17/17/8 15/15/8
f 18/18/9 19/19/9 17/17/9
f 20/20/10 21/21/10 19/19/10
f 22/22/11 23/23/11 21/21/11
f 24/24/12 25/25/12 23/23/12
f 26/26/13 27/27/13 25/25/13
f 28/28/14 29/29/14 27/27/14
f 30/30/15 31/31/15 29/29/15
f 32/32/16 33/33/16 31/31/16
f 34/34/17 35/35/17 33/33/17
f 36/36/18 37/37/18 35/35/18
f 38/38/19 39/39/19 37/37/19
f 40/40/20 41/41/20 39/39/20
f 42/42/21 43/43/21 41/41/21
f 44/44/22 45/45/22 43/43/22
f 46/46/23 47/47/23 45/45/23
f 48/48/24 49/49/24 47/47/24
f 50/50/25 51/51/25 49/49/25
f 52/52/26 53/53/26 51/51/26
f 54/54/27 55/55/27 53/53/27
f 56/56/28 57/57/28 55/55/28
f 58/58/29 59/59/29 57/57/29
f 60/60/30 61/61/30 59/59/30
f 62/62/31 63/63/31 61/61/31
f 64/64/32 65/65/32 63/63/32
f 66/66/33 67/67/33 65/65/33
f 68/68/34 69/69/34 67/67/34
f 70/70/35 71/71/35 69/69/35
f 72/72/36 73/73/36 71/71/36
f 74/74/37 75/75/37 73/73/37
f 76/76/38 77/77/38 75/75/38
f 78/78/39 79/79/39 77/77/39
f 80/80/40 81/81/40 79/79/40
f 82/82/41 50/83/41 18/84/41
f 82/85/42 83/86/42 81/81/42
f 84/87/43 1/88/43 83/86/43
f 7/89/44 39/90/44 71/91/44
f 2/1/1 4/4/1 3/2/1
f 4/4/2 6/6/2 5/5/2
f 6/6/3 8/8/3 7/7/3
f 8/8/4 10/10/4 9/9/4
f 10/10/5 12/12/5 11/11/5
f 12/12/6 14/14/6 13/13/6
f 14/14/7 16/16/7 15/15/7
f 16/16/8 18/18/8 17/17/8
f 18/18/9 20/20/9 19/19/9
f 20/20/10 22/22/10 21/21/10
f 22/22/11 24/24/11 23/23/11
f 24/24/12 26/26/12 25/25/12
f 26/26/13 28/28/13 27/27/13
f 28/28/14 30/30/14 29/29/14
f 30/30/15 32/32/15 31/31/15
f 32/32/16 34/34/16 33/33/16
f 34/34/17 36/36/17 35/35/17
f 36/36/18 38/38/18 37/37/18
f 38/38/19 40/40/19 39/39/19
f 40/40/20 42/42/20 41/41/20
f 42/42/21 44/44/21 43/43/21
f 44/44/22 46/46/22 45/45/22
f 46/46/23 48/48/23 47/47/23
f 48/48/24 50/50/24 49/49/24
f 50/50/25 52/52/25 51/51/25
f 52/52/26 54/54/26 53/53/26
f 54/54/27 56/56/27 55/55/27
f 56/56/28 58/58/28 57/57/28
f 58/58/29 60/60/29 59/59/29
f 60/60/30 62/62/30 61/61/30
f 62/62/31 64/64/31 63/63/31
f 64/64/32 66/66/32 65/65/32
f 66/66/33 68/68/33 67/67/33
f 68/68/34 70/70/34 69/69/34
f 70/70/35 72/72/35 71/71/35
f 72/72/36 74/74/36 73/73/36
f 74/74/37 76/76/37 75/75/37
f 76/76/38 78/78/38 77/77/38
f 78/78/39 80/80/39 79/79/39
f 80/80/40 82/85/40 81/81/40
f 6/92/41 4/93/41 82/82/41
f 4/93/41 2/94/41 82/82/41
f 2/94/41 84/95/41 82/82/41
f 82/82/41 80/96/41 78/97/41
f 78/97/41 76/98/41 74/99/41
f 74/99/41 72/100/41 66/101/41
f 72/100/41 70/102/41 66/101/41
f 70/102/41 68/103/41 66/101/41
f 66/101/41 64/104/41 58/105/41
f 64/104/41 62/106/41 58/105/41
f 62/106/41 60/107/41 58/105/41
f 58/105/41 56/108/41 54/109/41
f 54/109/41 52/110/41 50/83/41
f 50/83/41 48/111/41 42/112/41
f 48/111/41 46/113/41 42/112/41
f 46/113/41 44/114/41 42/112/41
f 42/112/41 40/115/41 34/116/41
f 40/115/41 38/117/41 34/116/41
f 38/117/41 36/118/41 34/116/41
f 34/116/41 32/119/41 30/120/41
f 30/120/41 28/121/41 34/116/41
f 28/121/41 26/122/41 34/116/41
f 26/122/41 24/123/41 22/124/41
f 22/124/41 20/125/41 26/122/41
f 20/125/41 18/84/41 26/122/41
f 18/84/41 16/126/41 14/127/41
f 14/127/41 12/128/41 10/129/41
f 10/129/41 8/130/41 6/92/41
f 82/82/41 78/97/41 74/99/41
f 58/105/41 54/109/41 50/83/41
f 18/84/41 14/127/41 10/129/41
f 10/129/41 6/92/41 82/82/41
f 82/82/41 74/99/41 50/83/41
f 74/99/41 66/101/41 50/83/41
f 66/101/41 58/105/41 50/83/41
f 50/83/41 42/112/41 34/116/41
f 34/116/41 26/122/41 18/84/41
f 18/84/41 10/129/41 82/82/41
f 50/83/41 34/116/41 18/84/41
f 82/85/42 84/87/42 83/86/42
f 84/87/43 2/131/43 1/88/43
f 83/132/44 1/133/44 3/134/44
f 3/134/44 5/135/44 7/89/44
f 7/89/44 9/136/44 11/137/44
f 11/137/44 13/138/44 7/89/44
f 13/138/44 15/139/44 7/89/44
f 15/139/44 17/140/44 19/141/44
f 19/141/44 21/142/44 23/143/44
f 23/143/44 25/144/44 27/145/44
f 27/145/44 29/146/44 31/147/44
f 31/147/44 33/148/44 35/149/44
f 35/149/44 37/150/44 39/90/44
f 39/90/44 41/151/44 43/152/44
f 43/152/44 45/153/44 39/90/44
f 45/153/44 47/154/44 39/90/44
f 47/154/44 49/155/44 51/156/44
f 51/156/44 53/157/44 47/154/44
f 53/157/44 55/158/44 47/154/44
f 55/158/44 57/159/44 63/160/44
f 57/159/44 59/161/44 63/160/44
f 59/161/44 61/162/44 63/160/44
f 63/160/44 65/163/44 67/164/44
f 67/164/44 69/165/44 71/91/44
f 71/91/44 73/166/44 75/167/44
f 75/167/44 77/168/44 71/91/44
f 77/168/44 79/169/44 71/91/44
f 79/169/44 81/170/44 83/132/44
f 83/132/44 3/134/44 7/89/44
f 15/139/44 19/141/44 23/143/44
f 23/143/44 27/145/44 39/90/44
f 27/145/44 31/147/44 39/90/44
f 31/147/44 35/149/44 39/90/44
f 63/160/44 67/164/44 71/91/44
f 79/169/44 83/132/44 71/91/44
f 83/132/44 7/89/44 71/91/44
f 7/89/44 15/139/44 23/143/44
f 39/90/44 47/154/44 55/158/44
f 55/158/44 63/160/44 71/91/44
f 7/89/44 23/143/44 39/90/44
f 39/90/44 55/158/44 71/91/44
