# Blender v2.79 (sub 0) OBJ File: ''
# www.blender.org
o Icosphere
v 0.000000 -0.000000 0.000000
v 0.144720 0.110557 0.105144
v -0.055277 0.110557 0.170128
v -0.178885 0.110557 0.000000
v -0.055277 0.110557 -0.170128
v 0.144720 0.110557 -0.105144
v 0.055277 0.289443 0.170128
v -0.144720 0.289443 0.105144
v -0.144720 0.289443 -0.105144
v 0.055277 0.289443 -0.170128
v 0.178885 0.289443 0.000000
v 0.000000 0.400000 0.000000
v 0.874999 0.901527 0.000000
v 0.612235 1.052623 0.000000
v 0.612764 0.749515 0.000000
v 0.618718 0.901080 -0.618718
v 0.432838 1.052310 -0.433103
v 0.433367 0.749202 -0.433103
v 0.000000 0.900000 -0.875000
v -0.000264 1.051554 -0.612500
v 0.000265 0.748446 -0.612500
v -0.618718 0.898920 -0.618718
v -0.433367 1.050798 -0.433103
v -0.432838 0.747690 -0.433103
v -0.874999 0.898473 -0.000000
v -0.612764 1.050485 -0.000000
v -0.612235 0.747377 -0.000000
v -0.618718 0.898920 0.618718
v -0.433367 1.050798 0.433103
v -0.432838 0.747690 0.433103
v 0.000000 0.900000 0.875000
v -0.000264 1.051554 0.612500
v 0.000265 0.748446 0.612500
v 0.618717 0.901080 0.618719
v 0.432838 1.052310 0.433103
v 0.433367 0.749202 0.433103
v 0.028615 0.274731 0.133308
v -0.296654 0.925269 0.696691
v -0.019541 0.256359 0.126718
v -0.344811 0.906898 0.690101
v -0.001170 0.293102 0.094898
v -0.326439 0.943640 0.658281
v -0.310000 0.000000 -0.030000
v 0.750000 0.000000 -0.030000
v -0.310000 -0.025981 0.015000
v 0.750000 -0.025981 0.015000
v -0.310000 0.025981 0.015000
v 0.750000 0.025981 0.015000
v 0.154731 0.274731 -0.030000
v 0.805269 0.925269 -0.030000
v 0.173102 0.256359 0.015000
v 0.823640 0.906898 0.015000
v 0.136359 0.293102 0.015000
v 0.786898 0.943640 0.015000
v -0.022829 0.274731 -0.103547
v -0.349081 0.925269 -0.666362
v 0.006890 0.256359 -0.142009
v -0.319362 0.906898 -0.704824
v 0.025317 0.293102 -0.110222
v -0.300935 0.943640 -0.673036
vt 0.000000 0.000000
vt 1.000000 0.000000
vt 1.000000 1.000000
vt 0.000000 0.000000
vt 1.000000 0.000000
vt 1.000000 1.000000
vt 1.000000 0.000000
vt 1.000000 1.000000
vt 1.000000 0.000000
vt 1.000000 1.000000
vt 1.000000 0.000000
vt 1.000000 0.000000
vt 1.000000 1.000000
vt 0.000000 0.000000
vt 1.000000 1.000000
vt 0.000000 0.000000
vt 1.000000 1.000000
vt 0.000000 0.000000
vt 1.000000 1.000000
vt 0.000000 0.000000
vt 1.000000 1.000000
vt 1.000000 0.000000
vt 1.000000 0.000000
vt 1.000000 0.000000
vt 1.000000 0.000000
vt 1.000000 0.000000
vt 0.000000 0.000000
vt 1.000000 1.000000
vt 0.000000 0.000000
vt 0.000000 0.000000
vt 0.000000 0.000000
vt 0.000000 0.000000
vt 0.570655 0.673522
vt 0.378511 0.792069
vt 0.427474 0.673687
vt 0.619952 0.791793
vt 0.292696 0.999900
vt 0.450221 0.611618
vt 0.671985 0.571764
vt 0.790545 0.620704
vt 0.706375 0.999322
vt 0.542579 0.613468
vt 0.672131 0.427953
vt 0.998374 0.292781
vt 0.998374 0.706483
vt 0.611781 0.455700
vt 0.609474 0.548900
vt 0.619964 0.207931
vt 0.790647 0.378938
vt 0.548253 0.388382
vt 0.427819 0.326478
vt 0.571000 0.326313
vt 0.378522 0.208207
vt 0.705778 0.000100
vt 0.326489 0.428236
vt 0.207929 0.379296
vt 0.292099 0.000677
vt 0.455896 0.386532
vt 0.326344 0.572046
vt 0.207827 0.621062
vt 0.000100 0.293517
vt 0.386693 0.544300
vt 0.389001 0.451100
vt 0.000100 0.707219
vt 1.000000 0.000000
vt 0.000000 1.000000
vt 0.000000 0.000000
vt 0.000000 0.000000
vt 1.000000 1.000000
vt 0.000000 1.000000
vt 0.000000 0.000000
vt 0.000000 0.000000
vt 1.000000 1.000000
vt 0.000000 1.000000
vt 1.000000 0.000000
vt 1.000000 1.000000
vt 1.000000 0.000000
vt 0.000000 1.000000
vt 0.000000 0.000000
vt 1.000000 0.000000
vt 0.000000 1.000000
vt 0.000000 0.000000
vt 0.000000 0.000000
vt 1.000000 1.000000
vt 1.000000 0.000000
vt 0.000000 1.000000
vt 0.000000 0.000000
vt 1.000000 0.000000
vt 1.000000 1.000000
vt 1.000000 0.000000
vt 0.000000 1.000000
vt 0.000000 0.000000
vt 0.000000 0.000000
vt 1.000000 1.000000
vt 0.000000 1.000000
vt 0.000000 0.000000
vt 1.000000 0.000000
vt 0.000000 1.000000
vt 0.000000 0.000000
vt 1.000000 0.000000
vt 1.000000 1.000000
vt 1.000000 0.000000
vt 0.000000 1.000000
vt 0.000000 0.000000
vt 1.000000 0.000000
vt 0.000000 1.000000
vt 0.000000 0.000000
vt 0.000000 0.000000
vt 1.000000 1.000000
vt 1.000000 0.000000
vt 0.000000 1.000000
vt 0.000000 0.000000
vt 1.000000 0.000000
vt 1.000000 1.000000
vt 1.000000 1.000000
vt 1.000000 0.000000
vt 1.000000 0.000000
vt 1.000000 1.000000
vt 1.000000 1.000000
vt 1.000000 1.000000
vt 1.000000 0.000000
vt 1.000000 1.000000
vt 1.000000 1.000000
vt 1.000000 1.000000
vn 0.1876 -0.7947 0.5774
vn 0.6071 -0.7947 0.0000
vn -0.4911 -0.7947 0.3568
vn -0.4911 -0.7947 -0.3568
vn 0.1876 -0.7947 -0.5774
vn 0.9822 -0.1876 0.0000
vn 0.3035 -0.1876 0.9342
vn -0.7946 -0.1876 0.5774
vn -0.7946 -0.1876 -0.5774
vn 0.3035 -0.1876 -0.9342
vn 0.7946 0.1876 0.5774
vn -0.3035 0.1876 0.9342
vn -0.9822 0.1876 0.0000
vn -0.3035 0.1876 -0.9342
vn 0.7946 0.1876 -0.5774
vn 0.4911 0.7947 0.3568
vn -0.1876 0.7947 0.5774
vn -0.6071 0.7947 0.0000
vn -0.1876 0.7947 -0.5774
vn 0.4911 0.7947 -0.3568
vn 0.4881 0.8489 -0.2028
vn -0.9239 -0.0016 0.3827
vn 0.4911 -0.8472 -0.2028
vn 0.2013 0.8484 -0.4896
vn -0.3827 -0.0007 0.9239
vn 0.2043 -0.8477 -0.4896
vn -0.2043 0.8477 -0.4896
vn 0.3827 0.0007 0.9239
vn -0.2013 -0.8484 -0.4896
vn -0.4911 0.8472 -0.2028
vn 0.9239 0.0016 0.3827
vn -0.4881 -0.8489 -0.2028
vn -0.4911 0.8472 0.2028
vn 0.9239 0.0016 -0.3827
vn -0.4881 -0.8489 0.2028
vn -0.2043 0.8477 0.4896
vn 0.3827 0.0007 -0.9239
vn -0.2013 -0.8484 0.4896
vn 0.2013 0.8484 0.4896
vn -0.3827 -0.0007 -0.9239
vn 0.2043 -0.8477 0.4896
vn 0.4881 0.8489 0.2028
vn -0.9239 -0.0016 -0.3827
vn 0.4911 -0.8472 0.2028
vn 0.1268 -0.6124 0.7803
vn -0.8660 0.0000 -0.5000
vn -0.3536 0.7071 0.6124
vn 0.7392 0.6124 -0.2803
vn 0.3536 -0.7071 -0.6124
vn 0.0000 -0.8660 -0.5000
vn 0.0000 0.0000 1.0000
vn 1.0000 0.0000 0.0000
vn 0.0000 0.8660 -0.5000
vn -1.0000 0.0000 0.0000
vn 0.6124 -0.6124 -0.5000
vn 0.7071 0.7071 -0.0000
vn -0.6124 0.6124 -0.5000
vn -0.7071 -0.7071 -0.0000
vn -0.7397 -0.6124 -0.2790
vn 0.8652 -0.0000 -0.5015
vn -0.3546 0.7071 -0.6118
vn -0.1255 0.6124 0.7806
vn 0.3546 -0.7071 0.6118
s off
f 1/1/1 2/2/1 3/3/1
f 2/4/2 1/5/2 6/6/2
f 1/1/3 3/7/3 4/8/3
f 1/1/4 4/9/4 5/10/4
f 1/1/5 5/11/5 6/6/5
f 2/4/6 6/12/6 11/13/6
f 3/14/7 2/2/7 7/15/7
f 4/16/8 3/7/8 8/17/8
f 5/18/9 4/9/9 9/19/9
f 6/20/10 5/11/10 10/21/10
f 2/4/11 11/22/11 7/15/11
f 3/14/12 7/23/12 8/17/12
f 4/16/13 8/24/13 9/19/13
f 5/18/14 9/25/14 10/21/14
f 6/20/15 10/26/15 11/13/15
f 7/27/16 11/22/16 12/28/16
f 8/29/17 7/23/17 12/28/17
f 9/30/18 8/24/18 12/28/18
f 10/31/19 9/25/19 12/28/19
f 11/32/20 10/26/20 12/28/20
f 16/33/21 14/34/21 13/35/21
f 17/36/22 15/37/22 14/34/22
f 15/38/23 16/33/23 13/35/23
f 19/39/24 17/36/24 16/33/24
f 20/40/25 18/41/25 17/36/25
f 18/42/26 19/39/26 16/33/26
f 22/43/27 20/40/27 19/39/27
f 20/40/28 24/44/28 21/45/28
f 24/46/29 19/39/29 21/47/29
f 22/43/30 26/48/30 23/49/30
f 26/48/31 24/44/31 23/49/31
f 27/50/32 22/43/32 24/46/32
f 28/51/33 26/48/33 25/52/33
f 29/53/34 27/54/34 26/48/34
f 27/50/35 28/51/35 25/52/35
f 31/55/36 29/53/36 28/51/36
f 32/56/37 30/57/37 29/53/37
f 30/58/38 31/55/38 28/51/38
f 34/59/39 32/56/39 31/55/39
f 35/60/40 33/61/40 32/56/40
f 36/62/41 31/55/41 33/63/41
f 34/59/42 14/34/42 35/60/42
f 14/34/43 36/64/43 35/60/43
f 15/38/44 34/59/44 36/62/44
f 38/65/45 39/66/45 37/67/45
f 39/68/46 42/69/46 41/70/46
f 40/71/47 38/65/47 42/69/47
f 41/72/48 38/73/48 37/74/48
f 37/67/49 39/75/49 41/76/49
f 44/77/50 45/78/50 43/79/50
f 46/80/51 47/81/51 45/82/51
f 46/83/52 44/77/52 48/84/52
f 48/85/53 43/86/53 47/87/53
f 43/79/54 45/88/54 47/89/54
f 50/90/55 51/91/55 49/92/55
f 51/93/51 54/94/51 53/95/51
f 52/96/56 50/90/56 54/94/56
f 54/97/57 49/98/57 53/99/57
f 49/92/58 51/100/58 53/101/58
f 56/102/59 57/103/59 55/104/59
f 58/105/60 59/106/60 57/107/60
f 58/108/61 56/102/61 60/109/61
f 60/110/62 55/111/62 59/112/62
f 55/104/63 57/113/63 59/114/63
f 16/33/21 17/36/21 14/34/21
f 17/36/22 18/41/22 15/37/22
f 15/38/23 18/42/23 16/33/23
f 19/39/24 20/40/24 17/36/24
f 20/40/25 21/45/25 18/41/25
f 18/42/26 21/47/26 19/39/26
f 22/43/27 23/49/27 20/40/27
f 20/40/28 23/49/28 24/44/28
f 24/46/29 22/43/29 19/39/29
f 22/43/30 25/52/30 26/48/30
f 26/48/31 27/54/31 24/44/31
f 27/50/32 25/52/32 22/43/32
f 28/51/33 29/53/33 26/48/33
f 29/53/34 30/57/34 27/54/34
f 27/50/35 30/58/35 28/51/35
f 31/55/36 32/56/36 29/53/36
f 32/56/37 33/61/37 30/57/37
f 30/58/38 33/63/38 31/55/38
f 34/59/39 35/60/39 32/56/39
f 35/60/40 36/64/40 33/61/40
f 36/62/41 34/59/41 31/55/41
f 34/59/42 13/35/42 14/34/42
f 14/34/43 15/37/43 36/64/43
f 15/38/44 13/35/44 34/59/44
f 38/65/45 40/115/45 39/66/45
f 39/68/46 40/116/46 42/69/46
f 41/72/48 42/117/48 38/73/48
f 44/77/50 46/118/50 45/78/50
f 46/80/51 48/84/51 47/81/51
f 48/85/53 44/119/53 43/86/53
f 50/90/55 52/120/55 51/91/55
f 51/93/51 52/121/51 54/94/51
f 54/97/57 50/122/57 49/98/57
f 56/102/59 58/123/59 57/103/59
f 58/105/60 60/109/60 59/106/60
f 60/110/62 56/124/62 55/111/62
