# Blender v2.79 (sub 0) OBJ File: 'grunt.blend'
# www.blender.org
o Cube.001
v -0.270000 0.699999 -0.450000
v -0.270000 1.299999 -0.450000
v 0.270000 0.699999 -0.450000
v 0.270000 1.299999 -0.450000
v -0.270000 0.699999 0.450000
v -0.270000 1.299999 0.450000
v 0.270000 0.699999 0.450000
v 0.270000 1.299999 0.450000
v -0.145173 0.697754 0.450000
v 0.154827 0.697927 0.450000
v -0.144827 0.097754 0.450000
v 0.155173 0.097927 0.450000
v -0.145173 0.697754 0.660000
v 0.154827 0.697927 0.660000
v -0.144827 0.097754 0.660000
v 0.155173 0.097927 0.660000
v -0.150000 -0.499999 0.150000
v -0.150000 0.100001 0.150000
v 0.150000 -0.499999 0.150000
v 0.150000 0.100001 0.150000
v -0.150000 -0.499999 0.450000
v -0.150000 0.100001 0.450000
v 0.150000 -0.499999 0.450000
v 0.150000 0.100001 0.450000
v -0.150000 -0.499999 -0.450000
v -0.150000 0.100001 -0.450000
v 0.150000 -0.499999 -0.450000
v 0.150000 0.100001 -0.450000
v -0.150000 -0.499999 -0.150000
v -0.150000 0.100001 -0.150000
v 0.150000 -0.499999 -0.150000
v 0.150000 0.100001 -0.150000
v -0.153332 0.695162 -0.660000
v 0.446668 0.695162 -0.660000
v -0.153332 0.395162 -0.660000
v 0.446668 0.395162 -0.660000
v -0.153332 0.695162 -0.450000
v 0.446668 0.695162 -0.450000
v -0.153332 0.395162 -0.450000
v 0.446668 0.395162 -0.450000
v -0.195000 0.100000 -0.450000
v -0.195000 1.299999 -0.450000
v 0.195000 0.100000 -0.450000
v 0.195000 1.299999 -0.450000
v -0.195000 0.100000 0.450000
v -0.195000 1.299999 0.450000
v 0.195000 0.100000 0.450000
v 0.195000 1.299999 0.450000
vt 0.352210 0.318817
vt 0.040825 0.681282
vt 0.000138 0.000138
vt 0.322279 0.364043
vt 0.664588 0.681281
vt 0.361652 0.395603
vt 0.683006 0.040838
vt 0.394700 0.365802
vt 0.683282 0.295647
vt 0.978791 0.000138
vt 0.978791 0.295647
vt 1.000000 0.000000
vt 0.000000 1.000000
vt 0.000000 0.000000
vt 0.000000 0.000000
vt 1.000000 1.000000
vt 0.000000 1.000000
vt 0.000000 0.000000
vt 1.000000 1.000000
vt 0.000000 1.000000
vt 1.000000 0.000000
vt 0.000000 1.000000
vt 0.000000 0.000000
vt 1.000000 0.000000
vt 1.000000 0.000000
vt 0.000000 1.000000
vt 0.000000 0.000000
vt 1.000000 0.000000
vt 0.000000 1.000000
vt 0.000000 0.000000
vt 1.000000 0.000000
vt 0.000000 1.000000
vt 0.000000 0.000000
vt 1.000000 0.000000
vt 0.000000 1.000000
vt 0.000000 0.000000
vt 1.000000 0.000000
vt 0.000000 1.000000
vt 0.000000 0.000000
vt 1.000000 0.000000
vt 0.000000 1.000000
vt 0.000000 0.000000
vt 1.000000 0.000000
vt 0.000000 1.000000
vt 0.000000 0.000000
vt 1.000000 0.000000
vt 0.000000 1.000000
vt 0.000000 0.000000
vt 1.000000 0.000000
vt 0.000000 1.000000
vt 0.000000 0.000000
vt 1.000000 0.000000
vt 0.000000 1.000000
vt 0.000000 0.000000
vt 1.000000 0.000000
vt 0.000000 1.000000
vt 0.000000 0.000000
vt 0.001089 0.843817
vt 0.000763 0.843103
vt 0.000264 0.843299
vt 0.517815 0.681558
vt 0.000831 0.843394
vt 0.000138 0.843203
vt 0.000293 0.843608
vt 0.999862 0.843203
vt 1.000000 0.000000
vt 0.000000 1.000000
vt 0.000000 0.000000
vt 1.000000 0.000000
vt 0.000000 1.000000
vt 0.000000 0.000000
vt 1.000000 0.000000
vt 0.000000 1.000000
vt 0.000000 0.000000
vt 1.000000 0.000000
vt 0.000000 1.000000
vt 0.000000 0.000000
vt 1.000000 0.000000
vt 0.000000 1.000000
vt 0.000000 0.000000
vt 0.683282 0.000138
vt 1.000000 1.000000
vt 1.000000 0.000000
vt 1.000000 1.000000
vt 1.000000 1.000000
vt 1.000000 1.000000
vt 1.000000 1.000000
vt 1.000000 1.000000
vt 1.000000 1.000000
vt 1.000000 1.000000
vt 1.000000 1.000000
vt 1.000000 1.000000
vt 1.000000 1.000000
vt 1.000000 1.000000
vt 1.000000 1.000000
vt 1.000000 1.000000
vt 1.000000 1.000000
vt 1.000000 1.000000
vt 1.000000 1.000000
vt 1.000000 1.000000
vn 0.0000 0.0000 -1.0000
vn 1.0000 0.0000 0.0000
vn 0.0000 0.0000 1.0000
vn -1.0000 0.0000 -0.0000
vn 0.0000 -1.0000 -0.0000
vn 0.0000 1.0000 0.0000
vn 0.0006 -1.0000 -0.0000
vn -0.0006 1.0000 -0.0000
vn -1.0000 -0.0006 -0.0000
vn 1.0000 0.0006 0.0000
s off
f 2/1/1 3/2/1 1/3/1
f 4/4/2 7/5/2 3/2/2
f 8/6/3 5/7/3 7/5/3
f 6/8/4 1/3/4 5/7/4
f 7/9/5 1/10/5 3/11/5
f 4/4/6 6/8/6 8/6/6
f 10/12/1 11/13/1 9/14/1
f 11/15/7 16/16/7 15/17/7
f 15/18/3 14/19/3 13/20/3
f 14/21/8 9/22/8 13/23/8
f 15/24/9 9/22/9 11/15/9
f 12/25/10 14/26/10 16/27/10
f 18/28/1 19/29/1 17/30/1
f 20/31/2 23/32/2 19/33/2
f 24/34/3 21/35/3 23/36/3
f 22/37/4 17/38/4 21/39/4
f 23/40/5 17/38/5 19/33/5
f 20/31/6 22/41/6 24/42/6
f 26/43/1 27/44/1 25/45/1
f 28/46/2 31/47/2 27/48/2
f 32/49/3 29/50/3 31/51/3
f 30/52/4 25/53/4 29/54/4
f 31/55/5 25/53/5 27/48/5
f 28/46/6 30/56/6 32/57/6
f 34/58/1 35/59/1 33/60/1
f 36/61/5 39/62/5 35/59/5
f 40/63/3 37/64/3 39/62/3
f 37/64/6 34/58/6 33/60/6
f 39/62/4 33/60/4 35/59/4
f 36/61/2 38/65/2 40/63/2
f 42/66/1 43/67/1 41/68/1
f 44/69/2 47/70/2 43/71/2
f 48/72/3 45/73/3 47/74/3
f 46/75/4 41/76/4 45/77/4
f 47/78/5 41/76/5 43/71/5
f 44/69/6 46/79/6 48/80/6
f 2/1/1 4/4/1 3/2/1
f 4/4/2 8/6/2 7/5/2
f 8/6/3 6/8/3 5/7/3
f 6/8/4 2/1/4 1/3/4
f 7/9/5 5/81/5 1/10/5
f 4/4/6 2/1/6 6/8/6
f 10/12/1 12/82/1 11/13/1
f 11/15/7 12/25/7 16/16/7
f 15/18/3 16/83/3 14/19/3
f 14/21/8 10/84/8 9/22/8
f 15/24/9 13/85/9 9/22/9
f 12/25/10 10/84/10 14/26/10
f 18/28/1 20/86/1 19/29/1
f 20/31/2 24/87/2 23/32/2
f 24/34/3 22/88/3 21/35/3
f 22/37/4 18/89/4 17/38/4
f 23/40/5 21/90/5 17/38/5
f 20/31/6 18/89/6 22/41/6
f 26/43/1 28/91/1 27/44/1
f 28/46/2 32/92/2 31/47/2
f 32/49/3 30/93/3 29/50/3
f 30/52/4 26/94/4 25/53/4
f 31/55/5 29/95/5 25/53/5
f 28/46/6 26/94/6 30/56/6
f 34/58/1 36/61/1 35/59/1
f 36/61/5 40/63/5 39/62/5
f 40/63/3 38/65/3 37/64/3
f 37/64/6 38/65/6 34/58/6
f 39/62/4 37/64/4 33/60/4
f 36/61/2 34/58/2 38/65/2
f 42/66/1 44/96/1 43/67/1
f 44/69/2 48/97/2 47/70/2
f 48/72/3 46/98/3 45/73/3
f 46/75/4 42/99/4 41/76/4
f 47/78/5 45/100/5 41/76/5
f 44/69/6 42/99/6 46/79/6
